<?xml version="1.0" encoding="UTF-8"?><svg id="Layer_2" xmlns="http://www.w3.org/2000/svg" viewBox="0 0 666.44 164.95"><defs><style>.cls-1{fill:#fc5e02;}.cls-2{fill:#291e30;}.cls-3{fill:#262f4d;fill-rule:evenodd;}</style></defs><g id="Layer_1-2"><path class="cls-1" d="m108.53,3.66l-11.54,28.88,11.22,23.24,12.23-29.99h26.68v102.3c0,3.9-1.56,7.65-4.34,10.4-2.77,2.76-6.52,4.31-10.44,4.31-3.12,0-8.51-1.74-10.64-5.97l-16.32-35.79-.11.17-26.94-58.82.09-.11-11.3-24.7C60.74,4.77,47.69,0,36.99,0c-9.81,0-19.22,3.89-26.15,10.8C3.9,17.72,0,27.1,0,36.88l.37,124.39h56.01l14.48-31.24-11.19-23.25-15.23,32.36h-22.22V36.88c0-3.91,1.56-7.66,4.33-10.42,2.77-2.76,6.53-4.32,10.45-4.32,1.97,0,8.62.45,11.05,6.88l12.53,27.46,4.14,9.17,26.83,58.81c4.68,10.05,9.88,21.17,12.16,25.96,4.65,9.69,16.73,14.53,28.62,14.53,4.86,0,9.67-.95,14.16-2.81,4.49-1.85,8.57-4.57,12-7.99,3.43-3.42,6.16-7.49,8.02-11.96,1.86-4.48,2.82-9.27,2.82-14.11V3.66h-60.79Z"/><path class="cls-2" d="m221.12,52.08V7.16c-.01-.1,0-.2.03-.3.03-.1.09-.18.17-.25.08-.07.17-.13.27-.16.1-.03.21-.04.32-.03h9.51c.19,0,.38.04.54.13.16.1.29.23.37.4l20.5,31.87h.35V7.16c-.01-.1,0-.2.03-.3.03-.1.09-.18.17-.25.08-.07.17-.13.27-.16.1-.03.21-.04.32-.03h7.89c.11-.01.21,0,.32.03.1.03.19.09.27.16.08.07.13.16.17.25.03.1.04.2.03.3v45.12c.01.1,0,.2-.03.3-.03.1-.09.18-.17.25-.08.07-.17.13-.27.16-.1.03-.21.04-.32.03h-9.51c-.18-.05-.34-.14-.47-.27-.12-.13-.2-.29-.23-.47l-20.8-32h-.26v31.79c.01.1,0,.2-.03.3-.03.1-.09.18-.17.25-.08.07-.17.12-.27.16-.1.03-.21.04-.32.03h-7.89c-.11.01-.21,0-.32-.03-.1-.03-.19-.09-.27-.16-.08-.07-.13-.16-.17-.25-.03-.1-.04-.2-.03-.3"/><path class="cls-2" d="m314.67,42.07v-17.97h-4.72c-.1.01-.2,0-.3-.03-.1-.03-.18-.08-.26-.16-.07-.07-.13-.16-.16-.25-.03-.1-.04-.2-.03-.3v-5.43c0-.52.26-.78.74-.78h4.72V7.48c0-.1,0-.2.04-.29.03-.09.09-.18.16-.25.07-.07.15-.13.25-.17.09-.04.19-.06.29-.06l8.2-.06c.11-.01.21,0,.32.03.1.03.19.09.27.17.08.07.13.17.17.27.03.1.04.21.03.31v8.92c0,.36.29.65.65.65h8.77c.11-.01.21,0,.32.03.1.03.19.09.27.17.08.08.13.17.17.27.03.1.04.21.03.31v5.6c0,.1,0,.2-.05.3-.04.09-.1.18-.17.25-.07.07-.16.12-.26.15-.1.03-.2.04-.3.03h-9.42v20.9c0,.36.29.65.65.65h8.77c.1-.01.21,0,.3.03.1.03.19.08.26.15.08.07.13.16.17.25.04.09.05.2.05.3v5.43c.01.1,0,.21-.03.31-.03.1-.09.19-.17.27-.08.08-.17.13-.27.17-.1.03-.21.04-.32.03h-8.33c-1.45.17-2.91.01-4.29-.45-1.38-.47-2.63-1.23-3.67-2.24-1.04-1.01-1.83-2.24-2.33-3.59-.49-1.35-.67-2.8-.53-4.23"/><path class="cls-2" d="m422.82,52.03v-24.22c-.21-1.46-.07-2.96.4-4.36.47-1.4,1.27-2.68,2.33-3.73,1.06-1.05,2.35-1.84,3.76-2.31,1.42-.47,2.93-.61,4.41-.41h10.86c.11-.01.21,0,.32.03.1.03.19.09.27.17.08.08.13.17.17.27.03.1.04.21.03.31v6.29c0,.1,0,.21-.05.3-.04.1-.09.18-.17.26-.07.07-.16.13-.26.17-.1.04-.2.05-.31.05h-11.47c-.36,0-.65.29-.65.65v26.54c0,.52-.26.78-.7.78h-8.15c-.11.01-.21,0-.32-.03-.1-.03-.19-.09-.27-.17-.08-.07-.13-.17-.17-.27-.03-.1-.05-.21-.03-.31"/><path class="cls-2" d="m379.07,35.42c0-.25,0-.49,0-.74-.12-2.34.25-4.68,1.09-6.88.88-2.31,2.25-4.42,4.02-6.16,1.77-1.74,3.9-3.09,6.24-3.95,3.29-1.3,10.99-1.47,14.71-.03,2.35.86,4.49,2.2,6.27,3.95,1.78,1.75,3.16,3.85,4.04,6.17.84,2.2,1.21,4.54,1.09,6.89-.01.26-.01.52,0,.77.09,2.33-.3,4.65-1.15,6.83-.89,2.3-2.27,4.38-4.05,6.11-1.78,1.73-3.91,3.06-6.25,3.9-4.53,1.57-10.46,1.68-14.62-.03-2.33-.85-4.45-2.18-6.22-3.91-1.77-1.73-3.14-3.81-4.03-6.1-.84-2.18-1.23-4.5-1.14-6.83m18.68,10.71c5.85,0,9.13-4.05,9.13-11.08s-3.38-11.21-9.13-11.21-9.13,4.05-9.13,11.21,3.24,11.08,9.13,11.08Z"/><path class="cls-2" d="m338.89,35.05c-.14-2.47.25-4.94,1.15-7.24.9-2.31,2.28-4.4,4.06-6.14,1.78-1.74,3.91-3.09,6.25-3.95,2.34-.87,4.85-1.23,7.34-1.07,9.22-.05,15.86,4.57,16.95,12.54.01.11,0,.22-.03.32-.03.1-.09.2-.17.27-.08.08-.17.14-.27.18-.1.04-.21.06-.32.05l-7.84.39c-.48,0-.7-.26-.83-.78-.11-.86-.4-1.69-.84-2.44-.44-.75-1.02-1.41-1.72-1.94-.7-.53-1.49-.92-2.34-1.14-.85-.22-1.73-.28-2.6-.16-5.71,0-8.94,4.31-8.94,11.2s3.31,11.08,8.94,11.08c1.8.25,3.63-.21,5.09-1.27,1.47-1.06,2.36-2.45,2.66-4.22,0-.11.02-.21.06-.31.04-.1.1-.18.18-.26.08-.07.17-.13.27-.17.1-.04.21-.05.31-.05l7.94.22c.48,0,.83.26.79.69-1.22,7.93-8,12.56-17.39,12.51-2.49.18-4.99-.16-7.33-1.02-2.34-.85-4.47-2.19-6.25-3.93-1.77-1.74-3.15-3.83-4.03-6.14-.88-2.31-1.26-4.77-1.1-7.24"/><path class="cls-2" d="m269.21,35.05c-.18-2.48.19-4.97,1.07-7.3.89-2.33,2.27-4.44,4.06-6.19,1.79-1.75,3.94-3.09,6.31-3.94,2.36-.85,4.89-1.18,7.4-.98,10.9,0,17.44,6.89,17.44,18.27v1.94c0,.21-.08.4-.23.55-.15.15-.35.23-.55.23h-25.55c-.04,1.17.17,2.33.61,3.41.44,1.08,1.11,2.06,1.96,2.88.85.81,1.86,1.44,2.97,1.84,1.11.4,2.3.57,3.48.49,1.58.22,3.19-.09,4.58-.87,1.39-.78,2.35-1.72,2.97-3.17.03-.2.14-.38.3-.5.16-.12.37-.17.57-.15l7.84.38c.57,0,.83,0,.74.56-1.26,6.81-8.78,10.77-17.26,10.68-2.47.18-4.96-.16-7.29-1-2.33-.84-4.45-2.17-6.22-3.88-1.77-1.72-3.15-3.79-4.05-6.07-.9-2.29-1.29-4.73-1.15-7.18m26.95-3.15c.07-1.07-.08-2.15-.45-3.16-.37-1.01-.96-1.93-1.71-2.7-.76-.77-1.67-1.38-2.68-1.78-1.01-.4-2.09-.59-3.18-.55-1.15-.1-2.3.05-3.39.41-1.09.37-2.09.96-2.93,1.73-.84.77-1.52,1.71-1.98,2.75-.46,1.04-.69,2.17-.69,3.3h17.01Z"/><path class="cls-2" d="m448.84,35.05c-.18-2.48.19-4.97,1.07-7.3.89-2.33,2.27-4.44,4.06-6.19,1.79-1.75,3.94-3.09,6.31-3.94,2.36-.85,4.89-1.18,7.4-.98,10.9,0,17.44,6.89,17.44,18.27v1.94c0,.21-.08.4-.23.55-.15.15-.35.23-.55.23h-25.55c-.04,1.17.17,2.33.61,3.41.44,1.08,1.11,2.06,1.96,2.88.85.81,1.86,1.44,2.97,1.84,1.11.4,2.29.57,3.47.49,1.58.22,3.19-.09,4.58-.87,1.39-.78,2.35-1.72,2.97-3.17.03-.2.14-.38.3-.5.16-.12.37-.17.57-.15l7.84.38c.57,0,.83,0,.74.56-1.26,6.81-8.78,10.77-17.26,10.68-2.47.18-4.96-.16-7.29-1-2.33-.84-4.45-2.17-6.22-3.88-1.77-1.72-3.15-3.79-4.05-6.07-.9-2.29-1.29-4.73-1.15-7.18m26.95-3.15c.07-1.07-.08-2.15-.46-3.16-.37-1.01-.96-1.93-1.71-2.7-.76-.77-1.67-1.38-2.68-1.78-1.01-.4-2.09-.59-3.18-.55-1.15-.1-2.3.05-3.39.41-1.09.37-2.08.96-2.93,1.73-.84.77-1.52,1.71-1.98,2.75-.46,1.04-.69,2.17-.69,3.3h17.01Z"/><path class="cls-3" d="m622.35,146.63h-11.9v-52.33h11.9c14.65,0,21.06,8.9,21.06,26.16s-6.41,26.16-21.06,26.16m2.22-69.34h-36.63v86.34h36.63c27.08,0,41.86-15.57,41.86-43.17s-14.78-43.17-41.86-43.17Zm-47.23,86.34l-29.43-44.09,27.6-42.26h-24.46l-14.91,26.43-14.78-26.43h-26.56l27.6,42.91-29.3,43.43h25.51l15.7-27.6,16.22,27.6h26.82Zm-142.99-15.83v-19.1h18.45c8.11,0,12.17,3.4,12.17,9.42s-4.06,9.68-12.17,9.68h-18.45Zm0-35.19v-18.84h16.35c7.98,0,12.04,3.14,12.04,9.42s-4.06,9.42-12.04,9.42h-16.35Zm-21.72,51.02h43.96c20.8,0,31.4-8.37,31.4-23.29,0-10.47-6.54-18.45-19.75-20.28v-.13c11.77-1.83,17.53-9.55,17.53-19.36,0-15.05-9.81-23.16-31.14-23.29h-41.99v86.34Zm-19.1-86.34h-19.89v43.56l.52,15.96h-.13l-6.54-12.82-26.82-46.7h-24.99v86.34h19.89v-43.56l-.52-15.96h.13l6.54,12.82,26.82,46.7h24.99v-86.34Zm-95.24,0h-22.5v51.55c0,12.43-5.23,18.45-16.09,18.45s-15.96-6.02-15.96-18.45v-51.55h-22.63v51.15c0,24.33,13.21,36.5,38.59,36.5s38.59-12.17,38.59-36.5v-51.15Z"/></g></svg>